<?xml version="1.0" standalone="no"?>
<!DOCTYPE svg PUBLIC "-//W3C//DTD SVG 20010904//EN"
 "http://www.w3.org/TR/2001/REC-SVG-20010904/DTD/svg10.dtd">
<svg version="1.0" xmlns="http://www.w3.org/2000/svg"
 width="820.000000pt" height="799.000000pt" viewBox="0 0 820.000000 799.000000"
 preserveAspectRatio="xMidYMid meet">
<metadata>
Created by potrace 1.16, written by Peter Selinger 2001-2019
</metadata>
<g transform="translate(0.000000,799.000000) scale(0.100000,-0.100000)"
fill="#000000" stroke="none">
<path d="M386 7568 c-28 -44 -68 -143 -94 -238 -25 -88 -27 -110 -27 -285 0
-163 4 -203 22 -277 27 -107 67 -196 127 -286 56 -83 67 -116 110 -317 l33
-160 17 40 c14 32 17 59 13 132 l-4 92 104 -97 c199 -184 256 -288 273 -492
10 -125 30 -240 42 -240 4 0 8 105 8 234 0 134 4 237 9 241 15 8 142 -142 184
-217 47 -84 103 -251 116 -348 5 -41 17 -192 26 -335 18 -289 21 -313 37 -297
8 8 14 115 18 324 7 288 9 319 30 388 13 41 27 79 30 83 6 7 264 -214 340
-290 13 -14 6 -15 -67 -9 -67 5 -83 4 -83 -7 0 -23 34 -60 89 -97 28 -19 51
-37 51 -40 0 -3 -35 -18 -77 -33 l-78 -26 60 2 c59 2 60 1 63 -25 3 -22 8 -28
29 -28 23 0 24 -2 18 -40 -8 -45 -2 -48 52 -28 29 11 36 10 52 -7 10 -11 38
-80 61 -154 48 -150 105 -268 203 -419 37 -56 67 -105 67 -107 0 -3 -18 -2
-39 1 -54 9 -106 -11 -138 -53 -24 -31 -27 -44 -31 -144 l-5 -109 -651 0
c-727 0 -698 3 -741 -70 -19 -33 -20 -51 -20 -355 0 -351 3 -371 57 -426 46
-46 70 -52 213 -58 l130 -6 19 -39 c21 -42 28 -175 13 -229 -4 -15 -32 -54
-62 -87 -30 -33 -57 -70 -61 -84 -10 -43 15 -94 93 -188 l75 -90 -28 -28 c-16
-15 -225 -199 -465 -408 -240 -210 -448 -395 -462 -412 -32 -38 -43 -90 -29
-138 14 -46 93 -183 152 -264 60 -82 202 -222 247 -243 55 -26 103 -29 140 -8
29 16 343 265 586 464 48 39 89 70 91 68 2 -2 16 -30 30 -61 16 -38 34 -62 50
-70 15 -6 29 -9 32 -6 3 3 14 61 25 128 11 67 24 130 29 140 13 25 74 43 115
36 53 -10 90 -55 103 -123 9 -44 66 -441 73 -507 1 -6 5 9 10 34 4 25 8 159 8
298 1 262 6 300 39 284 32 -17 82 -22 110 -11 61 23 112 93 112 154 0 45 -10
63 -76 142 -30 35 -54 70 -54 78 0 12 692 625 757 670 21 15 23 13 59 -50 89
-160 204 -271 357 -345 97 -46 184 -71 355 -102 164 -29 509 -32 636 -5 51 11
98 14 136 10 56 -5 61 -4 108 31 27 20 111 66 187 102 l137 67 113 169 112
169 45 -38 c53 -45 582 -508 686 -600 39 -35 72 -69 72 -74 0 -5 -26 -42 -58
-82 -32 -40 -64 -88 -72 -107 -15 -37 -21 -23 93 -232 54 -98 54 -95 96 -457
17 -139 32 -256 35 -258 13 -13 17 158 10 385 -5 141 -9 274 -8 295 2 74 29
57 40 -26 5 -35 14 -53 33 -68 l26 -21 7 39 c4 21 7 63 7 93 1 100 33 117 156
84 85 -22 121 -45 297 -198 193 -168 229 -216 257 -346 6 -30 16 -59 22 -66
18 -21 56 4 74 49 l16 40 34 -33 c22 -21 45 -62 68 -124 78 -204 107 -331 107
-469 0 -86 10 -137 26 -137 8 0 14 8 14 18 0 119 64 455 100 522 6 11 27 24
48 29 29 8 45 21 67 58 17 25 63 85 102 131 193 225 265 401 197 481 -28 34
-297 273 -692 615 -181 157 -252 225 -252 240 0 12 23 48 52 81 65 75 108 143
108 169 0 56 -89 148 -157 162 -56 11 -78 -3 -169 -106 -49 -55 -92 -99 -96
-98 -22 8 -191 165 -203 189 -8 15 -15 50 -15 76 0 116 106 196 293 222 132
18 434 25 513 12 61 -11 77 -10 109 3 76 32 123 15 164 -60 20 -38 32 -50 54
-52 42 -5 54 12 59 78 2 33 9 64 14 69 5 5 56 16 114 24 l105 16 30 -28 c56
-53 89 -46 100 21 6 36 17 52 63 93 209 187 284 285 373 485 65 146 65 200 1
227 -47 19 -562 32 -1364 33 -320 0 -577 4 -591 9 -21 8 -28 25 -55 133 -46
184 -55 272 -43 392 6 56 16 232 21 391 9 283 18 393 41 505 16 80 24 90 67
90 31 0 41 -6 60 -35 12 -19 26 -35 30 -35 9 0 141 186 181 254 13 23 34 69
46 104 l23 64 10 -34 c25 -78 34 -167 40 -395 4 -133 10 -244 13 -248 10 -10
17 26 74 427 30 211 60 401 66 422 8 28 29 56 72 95 34 31 155 148 268 261
195 193 209 210 247 290 79 165 104 276 104 450 0 138 -27 280 -79 420 -19 52
-46 106 -59 119 -22 23 -25 24 -53 10 -33 -16 -214 -172 -1039 -893 -315 -276
-576 -502 -580 -504 -5 -1 -16 14 -25 33 -31 65 -127 216 -197 310 -290 392
-647 630 -1091 729 -296 65 -655 62 -944 -8 -495 -121 -910 -444 -1198 -933
-35 -61 -64 -100 -71 -96 -6 4 -116 100 -246 213 -318 278 -1234 1076 -1289
1123 -51 42 -84 47 -105 15z m194 -284 c0 -40 -57 -119 -86 -119 -26 0 -56 62
-46 95 13 44 28 61 68 75 35 12 40 12 52 -3 6 -8 12 -30 12 -48z m6545 50 c61
-9 113 -19 117 -23 5 -4 -176 -238 -216 -278 -2 -2 -22 61 -46 138 l-44 141
23 19 c28 23 29 23 166 3z m-6649 -219 c6 -26 -35 -174 -48 -175 -10 0 -10 95
-2 167 6 47 9 51 25 42 10 -5 22 -21 25 -34z m322 -85 c-18 -22 -36 -40 -39
-40 -14 0 5 52 24 65 41 29 48 15 15 -25z m77 -87 c-33 -64 -54 -150 -62 -251
-7 -98 -25 -98 -25 1 1 94 30 183 90 275 24 37 23 25 -3 -25z m309 -69 l86
-76 -29 -36 c-59 -76 -106 -206 -131 -364 -7 -43 -16 -78 -21 -78 -15 0 -217
181 -222 199 -2 10 22 97 54 192 50 150 63 179 94 207 19 17 45 32 58 32 16 0
55 -27 111 -76z m-594 -106 c0 -108 -4 -168 -9 -162 -16 15 -32 143 -26 193 8
59 26 141 31 141 2 0 4 -77 4 -172z m6609 -60 c7 -11 11 -21 9 -23 -6 -7 -311
-135 -320 -135 -5 0 3 17 16 38 33 49 70 148 91 244 l17 77 86 -91 c48 -50 93
-99 101 -110z m-5659 -149 c74 -67 199 -175 278 -241 78 -65 149 -132 157
-148 21 -40 19 -90 -6 -152 -11 -29 -37 -120 -58 -201 -21 -81 -42 -147 -47
-147 -5 1 -99 79 -208 173 -110 95 -238 204 -286 244 -53 44 -94 87 -106 110
-38 80 -28 225 23 328 27 54 99 155 111 155 4 0 68 -55 142 -121z m-568 -206
c51 -42 96 -82 100 -87 9 -13 10 -150 2 -159 -7 -7 -110 100 -152 157 -31 42
-67 166 -47 166 2 0 46 -35 97 -77z m5714 -124 c-21 -86 -42 -149 -51 -155 -9
-7 -57 -15 -108 -19 -51 -3 -130 -11 -176 -15 -47 -5 -87 -7 -90 -5 -3 3 4 12
15 20 10 7 114 90 229 183 154 124 211 164 213 152 2 -10 -13 -82 -32 -161z
m-5359 -161 c15 -17 14 -18 -13 -18 -38 0 -50 9 -56 42 l-5 27 29 -17 c16 -9
36 -25 45 -34z m47 -67 c19 -21 138 -368 134 -390 -5 -26 -132 103 -165 166
-49 94 -82 227 -59 237 27 11 74 5 90 -13z m240 -174 c128 -111 246 -229 246
-245 0 -5 -57 -13 -126 -17 -171 -10 -162 -18 -241 211 -34 98 -62 183 -62
187 -2 16 61 -30 183 -136z m4536 98 c0 -29 -59 -315 -69 -334 -6 -10 -18 -22
-28 -25 -20 -8 -279 4 -307 14 -15 5 21 40 185 182 112 97 207 177 212 177 4
1 7 -6 7 -14z m-4360 -414 l25 -7 -22 -12 c-31 -17 -64 -14 -93 8 l-25 20 45
-1 c25 -1 56 -4 70 -8z m70 -147 c0 -73 2 -73 -73 -11 -27 22 -45 43 -40 48 6
6 70 23 106 28 4 1 7 -29 7 -65z m3946 -288 c66 -129 73 -176 88 -621 8 -220
12 -402 10 -404 -5 -5 -8 -1 -106 139 l-66 96 20 24 c36 46 58 104 58 158 0
64 -19 112 -64 162 -49 54 -60 97 -53 209 5 82 34 252 53 315 7 23 11 19 60
-78z m-3748 -118 c9 -12 33 -224 31 -280 -1 -24 -68 244 -69 275 0 20 23 23
38 5z m294 -53 c7 -60 48 -190 95 -294 36 -83 61 -322 45 -434 -6 -44 -16 -85
-21 -90 -12 -12 -78 58 -119 127 -126 207 -199 523 -163 699 l13 58 71 -3 72
-3 7 -60z m2157 43 c5 -13 14 -72 21 -133 15 -149 26 -143 -188 -109 -76 12
-201 45 -269 71 -26 10 -12 -16 42 -76 66 -74 85 -130 110 -319 25 -185 39
-171 43 41 2 151 4 167 20 167 25 -1 261 -48 272 -55 6 -4 10 -144 10 -383 0
-419 -1 -427 -67 -465 -42 -24 -314 -121 -379 -135 -28 -6 -121 -17 -207 -23
-251 -19 -504 9 -736 82 -247 79 -537 262 -591 374 -20 42 -22 57 -17 139 3
50 13 139 22 198 l17 107 37 -24 c78 -52 252 -91 367 -83 78 6 164 31 235 69
170 91 304 293 316 479 2 41 6 81 9 88 3 9 104 12 464 12 l460 0 9 -22z m1041
13 c0 -26 -33 -193 -45 -230 -8 -25 -35 -71 -60 -102 -52 -66 -65 -96 -65
-147 0 -20 -13 -64 -29 -97 -28 -60 -164 -245 -180 -245 -4 0 -21 24 -37 53
-28 50 -29 57 -32 215 -6 235 -5 238 80 323 97 96 84 105 -64 46 -98 -40 -283
-87 -338 -87 -13 0 -20 11 -25 40 -9 52 0 91 41 173 l34 67 360 0 c198 0 360
-4 360 -9z m93 -345 c44 -18 95 -78 102 -120 19 -99 -82 -200 -181 -181 -45 8
-100 57 -115 102 -43 131 73 250 194 199z m-700 -67 c39 -30 49 -86 51 -279
l1 -175 -36 -76 c-23 -48 -59 -99 -98 -141 -61 -66 -62 -66 -97 -55 -19 6 -41
20 -47 31 -21 36 -14 338 11 511 21 142 23 151 52 178 25 22 39 27 84 27 39 0
60 -6 79 -21z m512 -264 c16 -27 50 -133 85 -267 71 -270 79 -293 124 -360 40
-59 38 -62 -36 -72 -57 -9 -100 10 -116 51 -15 36 -112 595 -112 643 0 65 19
67 55 5z m375 -215 c128 -212 141 -241 129 -284 -13 -43 -67 -95 -114 -107
-51 -14 -120 -6 -145 16 -15 14 -123 326 -185 532 -6 21 -3 22 67 26 40 1 87
4 103 5 29 1 35 -7 145 -188z m-416 -175 c44 -320 46 -340 30 -352 -27 -20
-91 -16 -113 6 -30 30 -33 69 -30 358 4 262 5 269 28 306 13 21 27 35 31 30 4
-4 29 -161 54 -348z m-3172 236 l25 -29 6 -428 c4 -236 7 -531 7 -655 0 -208
-2 -229 -19 -250 -16 -20 -29 -24 -71 -24 -38 0 -55 5 -65 18 -10 13 -14 163
-20 676 -4 362 -4 667 -1 678 8 25 41 41 83 42 23 1 38 -7 55 -28z m3018 -111
c-7 -80 -14 -108 -27 -117 -19 -14 -198 -18 -207 -5 -4 7 234 235 240 229 1
-1 -1 -49 -6 -107z m-2815 -15 l100 -95 -107 0 -108 0 0 95 c0 52 3 95 8 95 4
-1 52 -43 107 -95z m2192 -137 c-5 -104 -10 -119 -28 -101 -8 8 -8 39 1 112
17 130 35 123 27 -11z m-3662 -59 c4 -17 4 -50 0 -74 -6 -43 -8 -45 -81 -80
-61 -30 -81 -45 -104 -82 -52 -81 -49 -188 7 -262 24 -30 130 -91 161 -91 8 0
12 -22 12 -75 l0 -75 -114 0 c-107 0 -117 2 -143 24 l-28 24 -3 324 c-3 317
-3 325 18 351 28 35 66 45 177 46 l91 1 7 -31z m452 16 c17 -12 22 -29 27 -92
4 -43 9 -97 13 -120 3 -26 1 -43 -5 -43 -5 0 -40 27 -76 60 -37 33 -71 60 -76
60 -6 0 -52 -36 -102 -80 -139 -124 -128 -129 -128 65 l0 165 163 0 c127 0
167 -3 184 -15z m1187 -15 c52 -46 70 -104 62 -198 -9 -114 -31 -193 -57 -215
-19 -15 -39 -17 -153 -15 l-131 3 -3 228 -2 227 124 0 125 0 35 -30z m-1088
-57 c3 -27 1 -61 -5 -78 l-9 -30 -1 40 c-1 22 -4 65 -7 95 -4 43 -3 51 6 38 6
-10 13 -39 16 -65z m504 -74 l0 -150 -27 20 c-16 10 -53 45 -83 75 -80 82 -88
80 -222 -51 -68 -67 -112 -103 -116 -96 -4 6 -6 88 -4 182 l3 171 224 0 225 0
0 -151z m3204 129 c9 -16 15 -63 18 -147 4 -120 5 -124 32 -147 15 -13 40 -24
56 -24 16 0 137 30 270 66 133 36 244 63 247 60 13 -12 -14 -197 -31 -214 -15
-15 -61 -17 -432 -21 -229 -2 -420 1 -424 5 -11 12 -17 372 -6 402 11 33 38
41 153 41 96 1 103 0 117 -21z m1854 -200 l-3 -213 -504 -3 c-278 -1 -508 1
-511 5 -4 5 -1 96 6 203 7 107 13 201 13 208 1 9 108 12 501 12 l500 0 -2
-212z m542 198 c0 -26 -80 -171 -119 -217 -72 -83 -196 -155 -312 -183 -22 -5
-28 -2 -33 17 -10 38 -7 357 4 378 10 18 23 19 235 19 185 0 225 -2 225 -14z
m208 -75 c28 -14 52 -27 52 -30 0 -3 -28 -22 -61 -41 -63 -36 -119 -90 -119
-115 0 -17 38 -45 62 -45 14 0 18 -8 18 -42 0 -40 -5 -47 -127 -170 -150 -151
-195 -179 -306 -186 -104 -6 -139 5 -154 51 -7 20 -15 65 -19 100 l-6 63 102
44 c193 82 304 181 381 338 58 120 56 117 93 84 17 -15 55 -38 84 -51z m-4913
-54 c66 -29 150 -66 188 -81 51 -22 69 -34 73 -53 6 -23 -20 -310 -29 -319 -9
-9 -257 83 -352 131 -75 38 -101 55 -103 72 -2 11 10 68 27 125 16 56 35 123
41 146 7 27 16 42 23 39 7 -3 66 -30 132 -60z m1874 31 c41 -130 72 -273 63
-292 -6 -15 -58 -42 -168 -89 -88 -37 -166 -67 -175 -67 -13 0 -17 16 -23 77
-10 127 -7 237 7 258 11 15 255 141 279 144 3 1 11 -14 17 -31z m-2846 -157
c72 -70 77 -78 77 -117 0 -38 -5 -47 -60 -98 -33 -30 -76 -67 -96 -82 -43 -33
-35 -37 -181 85 l-105 86 124 117 c141 134 112 133 241 9z m-581 49 c106 -94
125 -166 69 -251 -34 -50 -125 -124 -143 -116 -32 13 -218 180 -218 195 0 17
207 221 226 222 5 0 35 -23 66 -50z m-392 -151 l0 -161 -32 7 c-89 19 -131 76
-125 168 3 46 9 63 33 88 30 33 76 58 107 59 15 0 17 -14 17 -161z m4947 19
c-2 -18 -4 -4 -4 32 0 36 2 50 4 33 2 -18 2 -48 0 -65z m-2383 33 c103 -17
194 -36 202 -42 19 -15 20 -243 1 -279 -12 -24 -16 -25 -117 -25 -122 1 -372
32 -397 50 -15 11 -16 24 -4 156 7 79 15 152 18 163 6 23 29 21 297 -23z m721
-26 c16 -32 20 -59 19 -140 -1 -103 -10 -137 -42 -154 -10 -5 -81 -14 -158
-20 -209 -16 -254 -16 -266 0 -5 8 -7 69 -5 142 5 166 4 164 158 183 63 8 134
18 159 23 25 5 61 9 80 8 30 -2 38 -7 55 -42z m149 -77 c15 -113 18 -168 9
-168 -11 0 -18 35 -29 143 -8 75 10 97 20 25z m-2676 -135 c45 -39 83 -63 98
-63 15 0 51 25 101 70 43 38 81 70 86 70 4 0 7 -64 7 -141 l0 -141 -102 4
c-123 6 -195 30 -261 88 -60 53 -87 110 -87 184 l0 58 42 -34 c23 -18 76 -61
116 -95z m-557 22 c63 -52 111 -85 125 -85 13 0 49 23 86 54 l63 55 8 -27 c19
-68 -28 -168 -96 -201 -36 -17 -62 -21 -154 -21 -76 0 -114 4 -121 13 -11 13
-29 297 -19 297 4 0 52 -38 108 -85z m1821 -53 c148 -56 148 -56 148 -100 0
-88 -24 -293 -34 -288 -459 182 -446 173 -446 285 0 38 3 102 6 144 l7 75 106
-38 c58 -21 154 -56 213 -78z m1898 -37 l0 -155 -77 -39 c-43 -21 -97 -44
-120 -51 -38 -12 -44 -11 -72 9 -69 49 -128 180 -105 232 8 17 54 40 175 90
90 37 172 68 182 68 15 1 17 -13 17 -154z m-2314 78 c-3 -27 -8 -79 -12 -116
-9 -93 -23 -102 -141 -93 -48 3 -88 7 -89 9 -1 1 -5 50 -9 108 -9 140 -11 139
142 139 l115 0 -6 -47z m3244 40 c0 -5 -7 -48 -16 -96 -11 -61 -24 -97 -39
-115 l-23 -27 -380 -3 c-338 -2 -382 -1 -396 13 -23 24 -23 191 1 217 15 17
42 18 435 18 230 0 418 -3 418 -7z m1240 -6 c0 -33 -43 -134 -67 -159 -37 -38
-66 -45 -246 -59 -253 -19 -603 3 -640 40 -9 9 -46 151 -47 179 0 9 106 12
500 12 412 0 500 -2 500 -13z m-1155 -204 c-3 -14 -16 -24 -36 -28 -17 -4 -32
-5 -34 -3 -2 2 13 49 33 103 l37 100 3 -75 c2 -41 1 -85 -3 -97z m-1461 -84
c17 -127 17 -163 0 -146 -3 3 -12 56 -20 119 -8 62 -16 125 -19 141 -3 18 0
27 8 27 10 0 19 -41 31 -141z m-966 101 c123 -16 227 -30 232 -30 5 0 16 -7
24 -16 13 -12 16 -41 16 -152 0 -75 -4 -143 -9 -151 -12 -19 -160 -9 -358 24
-191 32 -191 32 -203 55 -11 21 5 235 21 278 11 28 8 28 277 -8z m785 -8 c44
-49 59 -144 33 -205 -18 -42 -71 -92 -120 -112 -42 -18 -330 -43 -359 -32 -15
6 -17 25 -17 155 0 108 4 152 13 160 12 10 303 48 388 51 33 1 51 -4 62 -17z
m1270 -119 c18 -9 52 -32 75 -52 174 -143 170 -132 164 -468 -1 -84 -6 -153
-10 -153 -14 0 -792 669 -792 680 0 6 93 10 265 10 228 0 271 -2 298 -17z
m223 -4 c3 -5 2 -18 -1 -29 -6 -19 -8 -19 -40 7 -19 15 -32 30 -30 33 6 9 64
0 71 -11z m-4307 -23 c28 -30 51 -105 51 -165 0 -67 -34 -125 -153 -265 l-34
-40 -58 55 c-70 66 -140 162 -160 219 -16 44 -20 134 -9 189 l7 31 167 0 c162
0 167 -1 189 -24z m456 15 c-92 -83 -277 -242 -280 -239 -3 3 -35 222 -35 240
0 4 73 8 162 8 92 0 158 -4 153 -9z m2973 -85 c-17 -181 -98 -406 -178 -496
l-31 -35 7 140 c4 77 7 193 8 259 l2 119 94 48 c52 26 97 48 100 48 3 1 2 -37
-2 -83z m1038 60 c-11 -45 -45 -116 -56 -116 -6 0 -10 25 -10 59 0 56 2 60 28
69 41 15 45 14 38 -12z m-3155 -22 c54 -27 59 -37 59 -109 0 -77 25 -212 67
-358 20 -70 33 -131 28 -135 -12 -12 -73 68 -119 158 -72 140 -126 326 -126
435 0 43 1 46 23 39 12 -3 43 -17 68 -30z m2241 -11 c34 -33 35 -43 4 -43 -42
0 -56 11 -56 41 0 36 16 37 52 2z m-622 -27 c0 -40 -23 -86 -37 -72 -8 8 18
116 28 116 5 0 9 -20 9 -44z m-1827 -64 c-48 -4 -53 5 -18 33 l30 24 12 -27
c11 -26 10 -27 -24 -30z m2526 -14 c5 -18 27 -97 47 -175 21 -78 40 -141 42
-139 2 2 -11 70 -28 151 -17 80 -30 152 -28 160 2 8 105 -73 251 -198 172
-147 243 -213 234 -219 -7 -4 -93 -12 -191 -18 -186 -12 -206 -10 -206 30 0
25 -10 50 -21 50 -5 0 -9 -14 -9 -31 l0 -30 -73 63 c-41 35 -100 85 -132 112
l-57 49 5 56 c9 91 27 134 67 153 56 29 87 24 99 -14z m-1901 -38 c240 -58
289 -63 645 -67 333 -5 338 -5 352 -27 16 -24 45 -331 45 -472 0 -55 4 -83 10
-79 17 10 24 -25 8 -41 -23 -23 -197 -62 -332 -74 -150 -14 -307 -3 -480 34
-145 31 -206 57 -257 113 -84 91 -118 210 -126 440 -8 213 -11 208 135 173z
m1342 10 c10 -5 23 -25 29 -42 15 -45 30 -207 33 -355 l3 -122 -29 -29 c-27
-29 -263 -158 -272 -149 -2 2 -11 96 -19 208 -8 112 -20 253 -26 312 -9 82 -9
111 0 120 15 15 186 64 229 66 18 0 42 -3 52 -9z m-2070 -20 c0 -23 -21 -209
-31 -282 -7 -46 -18 -83 -27 -90 -10 -9 -65 -14 -179 -17 -164 -3 -213 1 -213
19 0 11 428 380 441 380 5 0 9 -5 9 -10z m2179 -40 c18 -56 20 -315 2 -333 -8
-8 -11 -7 -11 3 0 8 -9 87 -20 174 -25 198 -25 208 -3 204 10 -2 23 -21 32
-48z m-1654 -77 c-8 -115 -19 -149 -31 -89 -10 54 14 196 33 196 3 0 2 -48 -2
-107z m2913 44 c16 -17 24 -41 28 -88 5 -54 1 -81 -26 -174 -18 -60 -35 -120
-37 -133 -3 -12 -9 -25 -14 -28 -5 -3 -9 93 -9 220 0 212 1 226 18 226 10 0
28 -11 40 -23z m690 -111 c50 -46 45 -79 -26 -168 -90 -112 -519 -595 -534
-601 -23 -8 -49 13 -69 56 -25 56 -24 104 4 149 21 34 313 360 481 535 87 91
78 89 144 29z m-5413 -30 c92 -92 100 -112 98 -225 -1 -51 2 -112 7 -135 5
-22 8 -42 6 -43 -4 -4 -243 272 -272 314 -13 20 -24 46 -24 58 0 28 72 95 101
95 13 0 46 -25 84 -64z m4995 -86 l60 -51 -87 -99 c-48 -54 -88 -98 -89 -97
-1 2 43 289 45 295 3 6 15 -2 71 -48z m-191 -189 c-19 -46 -49 -85 -49 -65 0
7 39 141 62 213 1 3 3 -17 5 -46 3 -37 -2 -66 -18 -102z m-4631 66 c12 -25 7
-68 -15 -127 -10 -28 -22 21 -22 93 -1 74 12 85 37 34z m4292 1 c13 -30 50
-231 50 -269 0 -31 -27 -49 -74 -49 -31 0 -373 297 -358 312 8 8 190 23 320
27 46 1 54 -2 62 -21z m93 -39 l47 -41 0 -83 c0 -67 -4 -87 -19 -106 -11 -13
-23 -21 -27 -17 -7 7 -63 249 -64 276 0 20 12 14 63 -29z m-3793 14 c-1 -27
-86 -418 -91 -418 -11 0 -180 196 -177 206 4 12 249 227 261 228 4 1 7 -7 7
-16z m1099 -66 l23 -38 -36 18 c-37 17 -54 49 -42 80 7 18 9 17 55 -60z m3416
-89 c-3 -13 -21 -88 -39 -167 -19 -79 -40 -149 -48 -157 -17 -17 -338 -147
-345 -140 -3 3 30 45 73 94 286 322 350 391 357 392 4 0 5 -10 2 -22z m157
-74 c62 -53 114 -99 115 -103 3 -7 -299 -132 -305 -127 -6 6 62 326 70 326 3
0 57 -43 120 -96z m-5057 43 c15 -23 19 -58 30 -231 l5 -90 -23 23 c-62 57
-102 178 -85 254 15 69 44 87 73 44z m244 -278 c215 -249 223 -263 185 -317
-20 -29 -70 -55 -93 -47 -10 3 -71 62 -135 131 l-116 126 0 135 c0 103 3 134
13 131 6 -3 72 -74 146 -159z m-443 59 c-3 -18 -11 -73 -17 -123 -7 -49 -16
-96 -22 -102 -11 -15 -213 -18 -236 -4 -11 7 -12 22 -2 92 25 169 25 169 180
169 l103 0 -6 -32z m5480 -18 l43 -39 -226 -275 c-247 -300 -240 -294 -283
-224 -22 37 -19 47 39 123 70 92 372 455 378 455 3 0 25 -18 49 -40z m-887
-129 c-6 -2 -21 7 -35 20 -18 17 -24 33 -24 63 l1 41 34 -60 c19 -33 30 -62
24 -64z m569 -85 c-90 -112 -166 -202 -169 -200 -4 2 8 72 25 156 30 147 33
154 61 167 39 19 216 81 233 81 7 0 -61 -92 -150 -204z m-163 72 c-3 -13 -23
-91 -43 -175 l-37 -152 -129 111 -129 111 114 44 c63 24 134 52 159 62 61 26
72 26 65 -1z m650 -105 c41 -64 73 -118 72 -119 -1 -1 -49 -18 -106 -38 -102
-36 -103 -36 -98 -14 3 13 13 75 22 138 19 136 24 164 31 157 3 -3 39 -59 79
-124z m-139 80 c-3 -21 -13 -89 -22 -152 -11 -76 -22 -119 -34 -131 -18 -18
-287 -116 -296 -107 -6 6 337 425 349 426 5 1 6 -16 3 -36z m-5906 -151 c0
-43 -41 -226 -52 -234 -7 -4 -31 -6 -53 -3 -22 2 -66 7 -97 10 -32 4 -58 7
-58 8 0 26 43 213 51 223 8 10 38 14 110 14 88 0 99 -2 99 -18z m-502 -194
c62 -66 112 -125 112 -129 0 -4 -14 -18 -31 -30 -30 -21 -31 -21 -48 -3 -76
80 -201 224 -201 230 0 10 41 54 50 54 3 0 57 -55 118 -122z m6837 77 c14 -31
13 -47 -11 -172 -14 -76 -27 -147 -30 -158 -7 -26 -43 -70 -51 -62 -11 12 38
370 55 399 9 16 18 28 20 28 2 0 10 -16 17 -35z m-192 -29 c-18 -31 -269 -335
-277 -335 -5 -1 -5 18 -1 42 3 23 10 80 14 125 12 124 40 153 187 195 73 21
79 21 82 5 2 -10 0 -24 -5 -32z m-6609 -269 c119 -142 214 -263 211 -268 -14
-22 -96 -69 -121 -69 -35 0 -83 51 -214 225 -115 153 -178 249 -187 284 -5 21
1 32 37 63 24 21 47 35 51 31 4 -4 104 -124 223 -266z m6897 242 c41 -44 41
-110 0 -167 -49 -67 -51 -64 -51 72 0 85 4 126 11 126 6 0 24 -14 40 -31z
m-581 -33 c0 -11 -41 -293 -45 -313 -3 -13 -10 -23 -16 -23 -13 0 -281 221
-275 227 6 7 310 112 324 112 6 1 12 -1 12 -3z m291 -109 c0 -64 -33 -191 -67
-259 -26 -52 -65 -78 -114 -78 -36 0 -85 42 -76 66 9 23 248 336 253 330 2 -2
4 -29 4 -59z m-6427 -132 c36 -47 78 -103 93 -126 l27 -41 -29 -24 c-16 -13
-33 -20 -37 -16 -3 4 -49 61 -102 127 l-95 120 31 27 c17 15 35 25 39 22 4 -2
37 -43 73 -89z"/>
<path d="M3728 4246 c-52 -19 -83 -40 -111 -78 -66 -89 -62 -193 10 -278 89
-104 246 -108 340 -9 84 89 82 219 -6 310 -65 66 -147 86 -233 55z"/>
<path d="M6226 5262 c-19 -22 -20 -41 -2 -65 13 -16 14 -16 30 7 19 30 19 36
2 58 -12 17 -14 17 -30 0z"/>
<path d="M6255 4377 l-26 -22 23 -22 c22 -21 24 -21 61 -5 l38 17 -26 28 c-31
33 -37 33 -70 4z"/>
<path d="M7226 4304 c-35 -34 -2 -84 55 -84 26 0 89 43 89 60 0 9 -85 40 -111
40 -10 0 -25 -7 -33 -16z"/>
<path d="M6300 4290 c-29 -29 -26 -50 9 -50 16 0 37 -3 47 -7 15 -5 16 -2 10
23 -8 32 -24 54 -37 54 -5 0 -18 -9 -29 -20z"/>
<path d="M7566 4225 c-32 -30 -32 -31 -1 -51 23 -15 27 -15 60 6 39 24 38 33
-5 55 -26 13 -30 13 -54 -10z"/>
<path d="M7426 2691 c-16 -17 -16 -20 -1 -35 20 -20 24 -20 54 3 l24 18 -24
17 c-29 20 -32 20 -53 -3z"/>
<path d="M3056 1554 c-10 -39 4 -46 42 -23 33 21 42 39 20 39 -7 0 -23 3 -34
6 -17 5 -23 0 -28 -22z"/>
<path d="M2711 1373 c-27 -25 -29 -32 -23 -63 6 -27 14 -36 40 -44 34 -9 77
10 89 40 9 24 -13 62 -46 79 -29 15 -32 14 -60 -12z"/>
<path d="M2638 928 c-19 -20 -37 -28 -62 -28 -44 0 -66 -29 -66 -86 0 -52 -14
-64 -85 -73 -31 -4 -62 -14 -70 -22 -16 -17 -31 -119 -17 -119 24 0 135 97
222 193 52 58 101 106 108 106 6 1 12 9 12 19 0 34 -15 37 -42 10z"/>
</g>
</svg>
